<svg xmlns="http://www.w3.org/2000/svg" xmlns:xlink="http://www.w3.org/1999/xlink" xmlns:lucid="lucid" width="1741.32" height="640"><g transform="translate(60 -160)" lucid:page-tab-id="0_0"><path d="M-500 0h2500v1000H-500z" fill="#fff"/><path d="M57.9 600h-95.8c-1.1 0-2.1-.95-2.1-2.12v-6.4c0-22.73 14.9-41.8 36.9-47.14.6-.1 1.1-.05 1.6.23 7.4 4 15.6 4 23 0 .5-.28 1-.34 1.5-.23 22.1 5.35 37 24.4 37 47.14v6.4c0 1.17-1 2.12-2.1 2.12zm-93.6-4.3h91.4v-4.22c.1-20.45-13.2-37.6-32.9-42.74-4.2 2.07-8.1 3-12.8 3-4.7 0-8.6-.88-12.8-3-19.7 5.13-33 22.3-32.9 42.74z" stroke="#fff" stroke-opacity="0" fill="#232f3e"/><path d="M10 551.63c-4.58 0-8.5-1-12.53-3.2-12.44-6.97-16.88-22.77-9.92-35.2 6.97-12.46 22.72-16.9 35.1-9.93 8.42 4.7 13.22 12.9 13.22 22.56 0 9.7-4.9 17.97-13.42 22.56-4.03 2.17-7.9 3.2-12.44 3.2zm0-47.3c-8.25-.2-15.32 3.98-19.3 11.2-5.62 10.5-1.75 23.5 8.68 29.18 6.76 3.67 14.2 3.67 20.95 0 7.13-3.87 11.26-10.83 11.2-19-.05-11.87-9.7-21.42-21.52-21.36z" stroke="#fff" stroke-opacity="0" fill="#232f3e"/><use xlink:href="#a" transform="matrix(1,0,0,1,-70,609) translate(32.592592592592624 17.77777777777776)"/><path d="M700 406a6 6 0 0 1 6-6h188a6 6 0 0 1 6 6v88a6 6 0 0 1-6 6H706a6 6 0 0 1-6-6z" stroke="#3a414a" stroke-width="4" fill="#fff"/><use xlink:href="#b" transform="matrix(1,0,0,1,712,412) translate(40.03703703703709 41.52777777777776)"/><path d="M700 606a6 6 0 0 1 6-6h188a6 6 0 0 1 6 6v88a6 6 0 0 1-6 6H706a6 6 0 0 1-6-6z" stroke="#3a414a" stroke-width="4" fill="#fff"/><use xlink:href="#c" transform="matrix(1,0,0,1,712,612) translate(41.79629629629634 41.52777777777776)"/><path d="M1655.97 690c0 5.52-22.4 10-50 10-27.62 0-50-4.48-50-10v-80c0-5.52 22.38-10 50-10 27.6 0 50 4.48 50 10z" stroke="#3a414a" stroke-width="4" fill="#fff"/><path d="M1655.97 610c0 5.52-22.4 10-50 10-27.62 0-50-4.48-50-10" stroke="#3a414a" stroke-width="4" fill="none"/><use xlink:href="#d" transform="matrix(1,0,0,1,1560.9667771259692,625) translate(-2.4999999999999574 39.44444444444444)"/><path d="M449.18 495.3A10 10 0 0 1 458 490h84a10 10 0 0 1 8.82 5.3l26.36 49.4a11.25 11.25 0 0 1 0 10.6l-26.36 49.4A10 10 0 0 1 542 610h-84a10 10 0 0 1-8.82-5.3l-26.36-49.4a11.25 11.25 0 0 1 0-10.6z" stroke="#3a414a" stroke-width="4" fill="#fff"/><use xlink:href="#e" transform="matrix(1,0,0,1,425,495) translate(3.4617901234568595 59.02777777777776)"/><use xlink:href="#f" transform="matrix(1,0,0,1,425,495) translate(59.01734567901236 59.02777777777776)"/><path d="M581 550h52.25a6 6 0 0 0 6-6v-88a6 6 0 0 1 6-6h36.37" stroke="#3a414a" fill="none"/><path d="M581 550.5h-.52l.02-.5-.02-.5h.53z" stroke="#3a414a" stroke-width=".05" fill="#3a414a"/><path d="M696.38 450l-14.26 4.63v-9.26z" stroke="#3a414a" fill="#3a414a"/><path d="M581 550h52.25a6 6 0 0 1 6 6v88a6 6 0 0 0 6 6h36.37" stroke="#3a414a" fill="none"/><path d="M581 550.5h-.52l.02-.5-.02-.5h.53z" stroke="#3a414a" stroke-width=".05" fill="#3a414a"/><path d="M696.38 650l-14.26 4.63v-9.26z" stroke="#3a414a" fill="#3a414a"/><path d="M1655.97 487.25c0 6.58-22.4 11.92-50 11.92-27.62 0-50-5.34-50-11.92v-95.33c0-6.6 22.38-11.92 50-11.92 27.6 0 50 5.33 50 11.92z" stroke="#3a414a" stroke-width="4" fill="#fff"/><path d="M1655.97 391.92c0 6.58-22.4 11.9-50 11.9-27.62 0-50-5.32-50-11.9" stroke="#3a414a" stroke-width="4" fill="none"/><use xlink:href="#g" transform="matrix(1,0,0,1,1560.9667771259692,408.8333333333333) translate(-8.641975308641932 34.11111111111112)"/><use xlink:href="#h" transform="matrix(1,0,0,1,1560.9667771259692,408.8333333333333) translate(7.993827160493865 60.77777777777776)"/><path d="M902.5 650h635.08" stroke="#3a414a" fill="none"/><path d="M902.5 650.5h-.5v-1h.5z" stroke="#3a414a" stroke-width=".05" fill="#3a414a"/><path d="M1552.35 650l-14.27 4.63v-9.26z" stroke="#3a414a" fill="#3a414a"/><path d="M723.33 185a3.2 3.2 0 0 1 2.67-5h148a3.2 3.2 0 0 1 2.67 5l-73.34 110a4 4 0 0 1-6.66 0z" stroke="#3a414a" fill="#fff"/><use xlink:href="#i" transform="matrix(1,0,0,1,725,185) translate(28.02469135802474 46.11111111111112)"/><use xlink:href="#j" transform="matrix(1,0,0,1,725,185) translate(28.79629629629634 72.77777777777776)"/><path d="M1605.97 377.5V221.4a6 6 0 0 0-6-6H873.4" stroke="#3a414a" fill="none"/><path d="M1606.47 378.02l-.5-.02-.5.02v-.53h1z" stroke="#3a414a" stroke-width=".05" fill="#3a414a"/><path d="M858.62 215.4l14.27-4.64v9.27z" stroke="#3a414a" fill="#3a414a"/><path d="M800 297.8v83.82" stroke="#3a414a" fill="none"/><path d="M800 297.3l.5-.06v.56h-1v-.56z" stroke="#3a414a" stroke-width=".05" fill="#3a414a"/><path d="M800 396.38l-4.63-14.26h9.26z" stroke="#3a414a" fill="#3a414a"/><path d="M800.5 581.62h-1v-20.95h1zm0-42.3h-1V502.5h1z" stroke="#3a414a" stroke-width=".05" fill="#3a414a"/><path d="M800.5 502.5h-1v-.5h1z" fill="#3a414a"/><path d="M800.52 502.54h-1.04v-.56h1.04zm-1-.52v.47h.96V502z" stroke="#3a414a" stroke-width=".05" fill="#3a414a"/><path d="M800 596.38l-4.63-14.26h9.26z" fill="#3a414a"/><path d="M800 598l-5.32-16.38h10.64zm-3.95-15.38l3.95 12.14 3.95-12.14z" stroke="#3a414a" stroke-width=".05" fill="#3a414a"/><path d="M800.5 597.5h-1v-36.83h1zm0-58.17h-1v-20.95h1z" stroke="#3a414a" stroke-width=".05" fill="#3a414a"/><path d="M800.5 598h-1v-.5h1z" fill="#3a414a"/><path d="M800.52 598.02h-1.04v-.56h1.04zm-1-.5v.46h.96v-.47z" stroke="#3a414a" stroke-width=".05" fill="#3a414a"/><path d="M804.63 517.88h-9.26l4.63-14.26z" fill="#3a414a"/><path d="M805.32 518.38h-10.64L800 502zm-9.27-1h7.9L800 505.24z" stroke="#3a414a" stroke-width=".05" fill="#3a414a"/><use xlink:href="#k" transform="matrix(1,0,0,1,785.2098765432099,539.3333333333334) translate(0 14.222222222222213)"/><path d="M548 700c17.67 0 32 17.9 32 40s-14.33 40-32 40h-96c-17.67 0-32-17.9-32-40s14.33-40 32-40z" stroke="#3a414a" stroke-width="4" fill="#fff"/><use xlink:href="#l" transform="matrix(1,0,0,1,425,705) translate(39.85067901234571 26.52777777777776)"/><use xlink:href="#m" transform="matrix(1,0,0,1,425,705) translate(38.02969135802473 53.1944444444444)"/><path d="M248 510c17.67 0 32 17.9 32 40s-14.33 40-32 40h-96c-17.67 0-32-17.9-32-40s14.33-40 32-40z" stroke="#3a414a" stroke-width="4" fill="#fff"/><use xlink:href="#n" transform="matrix(1,0,0,1,125,515) translate(1.054382716049455 27.787777777777762)"/><use xlink:href="#o" transform="matrix(1,0,0,1,125,515) translate(12.103765432098834 54.454444444444405)"/><use xlink:href="#m" transform="matrix(1,0,0,1,125,515) translate(63.95561728395064 54.454444444444405)"/><path d="M582.5 740H794a6 6 0 0 0 6-6v-15.62" stroke="#3a414a" fill="none"/><path d="M582.5 740.5h-.53l.03-.47-.02-.53h.53z" stroke="#3a414a" stroke-width=".05" fill="#3a414a"/><path d="M800 703.62l4.63 14.26h-9.26z" stroke="#3a414a" fill="#3a414a"/><path d="M800 702.5V734a6 6 0 0 1-6 6H598.38" stroke="#3a414a" fill="none"/><path d="M800.5 702.5h-1v-.5h1z" stroke="#3a414a" stroke-width=".05" fill="#3a414a"/><path d="M583.62 740l14.26-4.63v9.26z" stroke="#3a414a" fill="#3a414a"/><path d="M37.3 550h64.3" stroke="#3a414a" fill="none"/><path stroke="#3a414a" stroke-width=".05" fill="#3a414a"/><path d="M116.38 550l-14.27 4.63v-9.26z" stroke="#3a414a" fill="#3a414a"/><path d="M282.5 550h120.6" stroke="#3a414a" fill="none"/><path d="M282.5 550.5h-.53l.03-.47-.02-.53h.53z" stroke="#3a414a" stroke-width=".05" fill="#3a414a"/><path d="M417.88 550l-14.27 4.63v-9.26z" stroke="#3a414a" fill="#3a414a"/><path d="M1328 400c17.67 0 32 17.9 32 40s-14.33 40-32 40h-96c-17.67 0-32-17.9-32-40s14.33-40 32-40z" stroke="#3a414a" stroke-width="4" fill="#fff"/><use xlink:href="#p" transform="matrix(1,0,0,1,1205,405) translate(33.58524691358024 26.52777777777778)"/><use xlink:href="#q" transform="matrix(1,0,0,1,1205,405) translate(38.029691358024685 53.19444444444445)"/><path d="M1362.5 440h175.08" stroke="#3a414a" fill="none"/><path d="M1362.5 440.5h-.53l.03-.47-.02-.53h.53z" stroke="#3a414a" stroke-width=".05" fill="#3a414a"/><path d="M1552.35 440l-14.27 4.63v-9.26z" stroke="#3a414a" fill="#3a414a"/><path d="M897.63 598.37v-51.94a6 6 0 0 1 6-6H1274a6 6 0 0 0 6-6v-36.05" stroke="#3a414a" fill="none"/><path d="M898.13 599.17l-.5-.3-.5-.2v-.32h1z" stroke="#3a414a" stroke-width=".05" fill="#3a414a"/><path d="M1280 483.62l4.63 14.26h-9.27z" stroke="#3a414a" fill="#3a414a"/><defs><path fill="#3a414a" d="M30-248c87 1 191-15 191 75 0 78-77 80-158 76V0H30v-248zm33 125c57 0 124 11 124-50 0-59-68-47-124-48v98" id="r"/><path fill="#3a414a" d="M24-231v-30h32v30H24zM24 0v-190h32V0H24" id="s"/><path fill="#3a414a" d="M100-194c62-1 85 37 85 99 1 63-27 99-86 99S16-35 15-95c0-66 28-99 85-99zM99-20c44 1 53-31 53-75 0-43-8-75-51-75s-53 32-53 75 10 74 51 75" id="t"/><path fill="#3a414a" d="M135-143c-3-34-86-38-87 0 15 53 115 12 119 90S17 21 10-45l28-5c4 36 97 45 98 0-10-56-113-15-118-90-4-57 82-63 122-42 12 7 21 19 24 35" id="u"/><path fill="#3a414a" d="M106-169C34-169 62-67 57 0H25v-261h32l-1 103c12-21 28-36 61-36 89 0 53 116 60 194h-32v-121c2-32-8-49-39-48" id="v"/><path fill="#3a414a" d="M24 0v-261h32V0H24" id="w"/><path fill="#3a414a" d="M117-194c89-4 53 116 60 194h-32v-121c0-31-8-49-39-48C34-167 62-67 57 0H25l-1-190h30c1 10-1 24 2 32 11-22 29-35 61-36" id="x"/><g id="a"><use transform="matrix(0.061728395061728336,0,0,0.061728395061728336,0,0)" xlink:href="#r"/><use transform="matrix(0.061728395061728336,0,0,0.061728395061728336,14.8148148148148,0)" xlink:href="#s"/><use transform="matrix(0.061728395061728336,0,0,0.061728395061728336,19.69135802469134,0)" xlink:href="#t"/><use transform="matrix(0.061728395061728336,0,0,0.061728395061728336,32.03703703703701,0)" xlink:href="#u"/><use transform="matrix(0.061728395061728336,0,0,0.061728395061728336,43.14814814814811,0)" xlink:href="#v"/><use transform="matrix(0.061728395061728336,0,0,0.061728395061728336,55.49382716049378,0)" xlink:href="#t"/><use transform="matrix(0.061728395061728336,0,0,0.061728395061728336,67.83950617283945,0)" xlink:href="#w"/><use transform="matrix(0.061728395061728336,0,0,0.061728395061728336,72.716049382716,0)" xlink:href="#s"/><use transform="matrix(0.061728395061728336,0,0,0.061728395061728336,77.59259259259254,0)" xlink:href="#x"/><use transform="matrix(0.061728395061728336,0,0,0.061728395061728336,89.93827160493821,0)" xlink:href="#s"/></g><path fill="#3a414a" d="M76-208v77h127v40H76V0H24v-248h183v40H76" id="y"/><path fill="#3a414a" d="M135-150c-39-12-60 13-60 57V0H25l-1-190h47c2 13-1 29 3 40 6-28 27-53 61-41v41" id="z"/><path fill="#3a414a" d="M110-194c64 0 96 36 96 99 0 64-35 99-97 99-61 0-95-36-95-99 0-62 34-99 96-99zm-1 164c35 0 45-28 45-65 0-40-10-65-43-65-34 0-45 26-45 65 0 36 10 65 43 65" id="A"/><path fill="#3a414a" d="M135-194c87-1 58 113 63 194h-50c-7-57 23-157-34-157-59 0-34 97-39 157H25l-1-190h47c2 12-1 28 3 38 12-26 28-41 61-42" id="B"/><path fill="#3a414a" d="M115-3C79 11 28 4 28-45v-112H4v-33h27l15-45h31v45h36v33H77v99c-1 23 16 31 38 25v30" id="C"/><path fill="#3a414a" d="M185-48c-13 30-37 53-82 52C43 2 14-33 14-96s30-98 90-98c62 0 83 45 84 108H66c0 31 8 55 39 56 18 0 30-7 34-22zm-45-69c5-46-57-63-70-21-2 6-4 13-4 21h74" id="D"/><path fill="#3a414a" d="M88-194c31-1 46 15 58 34l-1-101h50l1 261h-48c-2-10 0-23-3-31C134-8 116 4 84 4 32 4 16-41 15-95c0-56 19-97 73-99zm17 164c33 0 40-30 41-66 1-37-9-64-41-64s-38 30-39 65c0 43 13 65 39 65" id="E"/><g id="b"><use transform="matrix(0.061728395061728336,0,0,0.061728395061728336,0,0)" xlink:href="#y"/><use transform="matrix(0.061728395061728336,0,0,0.061728395061728336,13.518518518518505,0)" xlink:href="#z"/><use transform="matrix(0.061728395061728336,0,0,0.061728395061728336,22.160493827160472,0)" xlink:href="#A"/><use transform="matrix(0.061728395061728336,0,0,0.061728395061728336,35.67901234567898,0)" xlink:href="#B"/><use transform="matrix(0.061728395061728336,0,0,0.061728395061728336,49.19753086419748,0)" xlink:href="#C"/><use transform="matrix(0.061728395061728336,0,0,0.061728395061728336,56.54320987654315,0)" xlink:href="#D"/><use transform="matrix(0.061728395061728336,0,0,0.061728395061728336,68.88888888888881,0)" xlink:href="#B"/><use transform="matrix(0.061728395061728336,0,0,0.061728395061728336,82.40740740740732,0)" xlink:href="#E"/></g><path fill="#3a414a" d="M182-130c37 4 62 22 62 59C244 23 116-4 24 0v-248c84 5 203-23 205 63 0 31-19 50-47 55zM76-148c40-3 101 13 101-30 0-44-60-28-101-31v61zm0 110c48-3 116 14 116-37 0-48-69-32-116-35v72" id="F"/><path fill="#3a414a" d="M133-34C117-15 103 5 69 4 32 3 11-16 11-54c-1-60 55-63 116-61 1-26-3-47-28-47-18 1-26 9-28 27l-52-2c7-38 36-58 82-57s74 22 75 68l1 82c-1 14 12 18 25 15v27c-30 8-71 5-69-32zm-48 3c29 0 43-24 42-57-32 0-66-3-65 30 0 17 8 27 23 27" id="G"/><path fill="#3a414a" d="M190-63c-7 42-38 67-86 67-59 0-84-38-90-98-12-110 154-137 174-36l-49 2c-2-19-15-32-35-32-30 0-35 28-38 64-6 74 65 87 74 30" id="H"/><path fill="#3a414a" d="M147 0L96-86 75-71V0H25v-261h50v150l67-79h53l-66 74L201 0h-54" id="I"/><g id="c"><use transform="matrix(0.061728395061728336,0,0,0.061728395061728336,0,0)" xlink:href="#F"/><use transform="matrix(0.061728395061728336,0,0,0.061728395061728336,15.98765432098764,0)" xlink:href="#G"/><use transform="matrix(0.061728395061728336,0,0,0.061728395061728336,28.333333333333307,0)" xlink:href="#H"/><use transform="matrix(0.061728395061728336,0,0,0.061728395061728336,40.67901234567897,0)" xlink:href="#I"/><use transform="matrix(0.061728395061728336,0,0,0.061728395061728336,53.02469135802464,0)" xlink:href="#D"/><use transform="matrix(0.061728395061728336,0,0,0.061728395061728336,65.37037037037031,0)" xlink:href="#B"/><use transform="matrix(0.061728395061728336,0,0,0.061728395061728336,78.88888888888881,0)" xlink:href="#E"/></g><path fill="#3a414a" d="M30-248c118-7 216 8 213 122C240-48 200 0 122 0H30v-248zM63-27c89 8 146-16 146-99s-60-101-146-95v194" id="J"/><path fill="#3a414a" d="M141-36C126-15 110 5 73 4 37 3 15-17 15-53c-1-64 63-63 125-63 3-35-9-54-41-54-24 1-41 7-42 31l-33-3c5-37 33-52 76-52 45 0 72 20 72 64v82c-1 20 7 32 28 27v20c-31 9-61-2-59-35zM48-53c0 20 12 33 32 33 41-3 63-29 60-74-43 2-92-5-92 41" id="K"/><path fill="#3a414a" d="M59-47c-2 24 18 29 38 22v24C64 9 27 4 27-40v-127H5v-23h24l9-43h21v43h35v23H59v120" id="L"/><path fill="#3a414a" d="M115-194c53 0 69 39 70 98 0 66-23 100-70 100C84 3 66-7 56-30L54 0H23l1-261h32v101c10-23 28-34 59-34zm-8 174c40 0 45-34 45-75 0-40-5-75-45-74-42 0-51 32-51 76 0 43 10 73 51 73" id="M"/><path fill="#3a414a" d="M100-194c63 0 86 42 84 106H49c0 40 14 67 53 68 26 1 43-12 49-29l28 8c-11 28-37 45-77 45C44 4 14-33 15-96c1-61 26-98 85-98zm52 81c6-60-76-77-97-28-3 7-6 17-6 28h103" id="N"/><g id="d"><use transform="matrix(0.061728395061728336,0,0,0.061728395061728336,0,0)" xlink:href="#J"/><use transform="matrix(0.061728395061728336,0,0,0.061728395061728336,15.98765432098764,0)" xlink:href="#K"/><use transform="matrix(0.061728395061728336,0,0,0.061728395061728336,28.333333333333307,0)" xlink:href="#L"/><use transform="matrix(0.061728395061728336,0,0,0.061728395061728336,34.50617283950614,0)" xlink:href="#K"/><use transform="matrix(0.061728395061728336,0,0,0.061728395061728336,46.851851851851805,0)" xlink:href="#M"/><use transform="matrix(0.061728395061728336,0,0,0.061728395061728336,59.197530864197475,0)" xlink:href="#K"/><use transform="matrix(0.061728395061728336,0,0,0.061728395061728336,71.54320987654314,0)" xlink:href="#u"/><use transform="matrix(0.061728395061728336,0,0,0.061728395061728336,82.65432098765424,0)" xlink:href="#N"/></g><path fill="#3a414a" d="M30 0v-248h33v221h125V0H30" id="O"/><path fill="#3a414a" d="M85-194c31 0 48 13 60 33l-1-100h32l1 261h-30c-2-10 0-23-3-31C134-8 116 4 85 4 32 4 16-35 15-94c0-66 23-100 70-100zm9 24c-40 0-46 34-46 75 0 40 6 74 45 74 42 0 51-32 51-76 0-42-9-74-50-73" id="P"/><g id="e"><use transform="matrix(0.061728395061728336,0,0,0.061728395061728336,0,0)" xlink:href="#O"/><use transform="matrix(0.061728395061728336,0,0,0.061728395061728336,12.345679012345666,0)" xlink:href="#t"/><use transform="matrix(0.061728395061728336,0,0,0.061728395061728336,24.691358024691333,0)" xlink:href="#K"/><use transform="matrix(0.061728395061728336,0,0,0.061728395061728336,37.037037037036995,0)" xlink:href="#P"/></g><path fill="#3a414a" d="M160-131c35 5 61 23 61 61C221 17 115-2 30 0v-248c76 3 177-17 177 60 0 33-19 50-47 57zm-97-11c50-1 110 9 110-42 0-47-63-36-110-37v79zm0 115c55-2 124 14 124-45 0-56-70-42-124-44v89" id="Q"/><path fill="#3a414a" d="M96-169c-40 0-48 33-48 73s9 75 48 75c24 0 41-14 43-38l32 2c-6 37-31 61-74 61-59 0-76-41-82-99-10-93 101-131 147-64 4 7 5 14 7 22l-32 3c-4-21-16-35-41-35" id="R"/><path fill="#3a414a" d="M114-163C36-179 61-72 57 0H25l-1-190h30c1 12-1 29 2 39 6-27 23-49 58-41v29" id="S"/><g id="f"><use transform="matrix(0.061728395061728336,0,0,0.061728395061728336,0,0)" xlink:href="#Q"/><use transform="matrix(0.061728395061728336,0,0,0.061728395061728336,14.8148148148148,0)" xlink:href="#K"/><use transform="matrix(0.061728395061728336,0,0,0.061728395061728336,27.160493827160465,0)" xlink:href="#w"/><use transform="matrix(0.061728395061728336,0,0,0.061728395061728336,32.037037037037,0)" xlink:href="#K"/><use transform="matrix(0.061728395061728336,0,0,0.061728395061728336,44.382716049382665,0)" xlink:href="#x"/><use transform="matrix(0.061728395061728336,0,0,0.061728395061728336,56.728395061728335,0)" xlink:href="#R"/><use transform="matrix(0.061728395061728336,0,0,0.061728395061728336,67.83950617283944,0)" xlink:href="#N"/><use transform="matrix(0.061728395061728336,0,0,0.061728395061728336,80.1851851851851,0)" xlink:href="#S"/></g><path fill="#3a414a" d="M240 0l2-218c-23 76-54 145-80 218h-23L58-218 59 0H30v-248h44l77 211c21-75 51-140 76-211h43V0h-30" id="T"/><path fill="#3a414a" d="M177-190C167-65 218 103 67 71c-23-6-38-20-44-43l32-5c15 47 100 32 89-28v-30C133-14 115 1 83 1 29 1 15-40 15-95c0-56 16-97 71-98 29-1 48 16 59 35 1-10 0-23 2-32h30zM94-22c36 0 50-32 50-73 0-42-14-75-50-75-39 0-46 34-46 75s6 73 46 73" id="U"/><g id="g"><use transform="matrix(0.061728395061728336,0,0,0.061728395061728336,0,0)" xlink:href="#T"/><use transform="matrix(0.061728395061728336,0,0,0.061728395061728336,18.456790123456774,0)" xlink:href="#N"/><use transform="matrix(0.061728395061728336,0,0,0.061728395061728336,30.80246913580244,0)" xlink:href="#u"/><use transform="matrix(0.061728395061728336,0,0,0.061728395061728336,41.91358024691354,0)" xlink:href="#u"/><use transform="matrix(0.061728395061728336,0,0,0.061728395061728336,53.02469135802464,0)" xlink:href="#K"/><use transform="matrix(0.061728395061728336,0,0,0.061728395061728336,65.37037037037031,0)" xlink:href="#U"/><use transform="matrix(0.061728395061728336,0,0,0.061728395061728336,77.71604938271598,0)" xlink:href="#s"/><use transform="matrix(0.061728395061728336,0,0,0.061728395061728336,82.59259259259252,0)" xlink:href="#x"/><use transform="matrix(0.061728395061728336,0,0,0.061728395061728336,94.9382716049382,0)" xlink:href="#U"/></g><path fill="#3a414a" d="M185-189c-5-48-123-54-124 2 14 75 158 14 163 119 3 78-121 87-175 55-17-10-28-26-33-46l33-7c5 56 141 63 141-1 0-78-155-14-162-118-5-82 145-84 179-34 5 7 8 16 11 25" id="V"/><path fill="#3a414a" d="M179-190L93 31C79 59 56 82 12 73V49c39 6 53-20 64-50L1-190h34L92-34l54-156h33" id="W"/><path fill="#3a414a" d="M210-169c-67 3-38 105-44 169h-31v-121c0-29-5-50-35-48C34-165 62-65 56 0H25l-1-190h30c1 10-1 24 2 32 10-44 99-50 107 0 11-21 27-35 58-36 85-2 47 119 55 194h-31v-121c0-29-5-49-35-48" id="X"/><g id="h"><use transform="matrix(0.061728395061728336,0,0,0.061728395061728336,0,0)" xlink:href="#V"/><use transform="matrix(0.061728395061728336,0,0,0.061728395061728336,14.8148148148148,0)" xlink:href="#W"/><use transform="matrix(0.061728395061728336,0,0,0.061728395061728336,25.925925925925903,0)" xlink:href="#u"/><use transform="matrix(0.061728395061728336,0,0,0.061728395061728336,37.037037037037,0)" xlink:href="#L"/><use transform="matrix(0.061728395061728336,0,0,0.061728395061728336,43.20987654320984,0)" xlink:href="#N"/><use transform="matrix(0.061728395061728336,0,0,0.061728395061728336,55.5555555555555,0)" xlink:href="#X"/></g><path fill="#3a414a" d="M233-177c-1 41-23 64-60 70L243 0h-38l-65-103H63V0H30v-248c88 3 205-21 203 71zM63-129c60-2 137 13 137-47 0-61-80-42-137-45v92" id="Y"/><path fill="#3a414a" d="M127-220V0H93v-220H8v-28h204v28h-85" id="Z"/><g id="i"><use transform="matrix(0.061728395061728336,0,0,0.061728395061728336,0,0)" xlink:href="#Y"/><use transform="matrix(0.061728395061728336,0,0,0.061728395061728336,15.98765432098764,0)" xlink:href="#N"/><use transform="matrix(0.061728395061728336,0,0,0.061728395061728336,28.333333333333307,0)" xlink:href="#K"/><use transform="matrix(0.061728395061728336,0,0,0.061728395061728336,40.67901234567897,0)" xlink:href="#w"/><use transform="matrix(0.061728395061728336,0,0,0.061728395061728336,45.55555555555551,0)" xlink:href="#Z"/><use transform="matrix(0.061728395061728336,0,0,0.061728395061728336,58.271604938271544,0)" xlink:href="#s"/><use transform="matrix(0.061728395061728336,0,0,0.061728395061728336,63.14814814814808,0)" xlink:href="#X"/><use transform="matrix(0.061728395061728336,0,0,0.061728395061728336,81.60493827160485,0)" xlink:href="#N"/></g><path fill="#3a414a" d="M84 4C-5 8 30-112 23-190h32v120c0 31 7 50 39 49 72-2 45-101 50-169h31l1 190h-30c-1-10 1-25-2-33-11 22-28 36-60 37" id="aa"/><g id="j"><use transform="matrix(0.061728395061728336,0,0,0.061728395061728336,0,0)" xlink:href="#r"/><use transform="matrix(0.061728395061728336,0,0,0.061728395061728336,14.8148148148148,0)" xlink:href="#aa"/><use transform="matrix(0.061728395061728336,0,0,0.061728395061728336,27.160493827160465,0)" xlink:href="#M"/><use transform="matrix(0.061728395061728336,0,0,0.061728395061728336,39.506172839506135,0)" xlink:href="#w"/><use transform="matrix(0.061728395061728336,0,0,0.061728395061728336,44.38271604938267,0)" xlink:href="#s"/><use transform="matrix(0.061728395061728336,0,0,0.061728395061728336,49.25925925925921,0)" xlink:href="#u"/><use transform="matrix(0.061728395061728336,0,0,0.061728395061728336,60.37037037037031,0)" xlink:href="#v"/><use transform="matrix(0.061728395061728336,0,0,0.061728395061728336,72.71604938271598,0)" xlink:href="#N"/><use transform="matrix(0.061728395061728336,0,0,0.061728395061728336,85.06172839506165,0)" xlink:href="#S"/></g><path fill="#333" d="M199 0l-22-63H83L61 0H9l90-248h61L250 0h-51zm-33-102l-36-108c-10 38-24 72-36 108h72" id="ab"/><path fill="#333" d="M24-248c93 1 206-16 204 79-1 75-69 88-152 82V0H24v-248zm52 121c47 0 100 7 100-41 0-47-54-39-100-39v80" id="ac"/><path fill="#333" d="M24 0v-248h52V0H24" id="ad"/><g id="k"><use transform="matrix(0.04938271604938268,0,0,0.04938271604938268,0,0)" xlink:href="#ab"/><use transform="matrix(0.04938271604938268,0,0,0.04938271604938268,12.790123456790115,0)" xlink:href="#ac"/><use transform="matrix(0.04938271604938268,0,0,0.04938271604938268,24.641975308641957,0)" xlink:href="#ad"/></g><g id="l"><use transform="matrix(0.061728395061728336,0,0,0.061728395061728336,0,0)" xlink:href="#V"/><use transform="matrix(0.061728395061728336,0,0,0.061728395061728336,14.8148148148148,0)" xlink:href="#N"/><use transform="matrix(0.061728395061728336,0,0,0.061728395061728336,27.160493827160465,0)" xlink:href="#K"/><use transform="matrix(0.061728395061728336,0,0,0.061728395061728336,39.506172839506135,0)" xlink:href="#S"/><use transform="matrix(0.061728395061728336,0,0,0.061728395061728336,46.851851851851805,0)" xlink:href="#R"/><use transform="matrix(0.061728395061728336,0,0,0.061728395061728336,57.962962962962905,0)" xlink:href="#v"/></g><path fill="#3a414a" d="M108 0H70L1-190h34L89-25l56-165h34" id="ae"/><g id="m"><use transform="matrix(0.061728395061728336,0,0,0.061728395061728336,0,0)" xlink:href="#V"/><use transform="matrix(0.061728395061728336,0,0,0.061728395061728336,14.8148148148148,0)" xlink:href="#N"/><use transform="matrix(0.061728395061728336,0,0,0.061728395061728336,27.160493827160465,0)" xlink:href="#S"/><use transform="matrix(0.061728395061728336,0,0,0.061728395061728336,34.506172839506135,0)" xlink:href="#ae"/><use transform="matrix(0.061728395061728336,0,0,0.061728395061728336,45.617283950617235,0)" xlink:href="#s"/><use transform="matrix(0.061728395061728336,0,0,0.061728395061728336,50.49382716049377,0)" xlink:href="#R"/><use transform="matrix(0.061728395061728336,0,0,0.061728395061728336,61.60493827160487,0)" xlink:href="#N"/></g><path fill="#3a414a" d="M9 0v-24l116-142H16v-24h144v24L44-24h123V0H9" id="af"/><g id="n"><use transform="matrix(0.061728395061728336,0,0,0.061728395061728336,0,0)" xlink:href="#J"/><use transform="matrix(0.061728395061728336,0,0,0.061728395061728336,15.98765432098764,0)" xlink:href="#N"/><use transform="matrix(0.061728395061728336,0,0,0.061728395061728336,28.333333333333307,0)" xlink:href="#R"/><use transform="matrix(0.061728395061728336,0,0,0.061728395061728336,39.44444444444441,0)" xlink:href="#N"/><use transform="matrix(0.061728395061728336,0,0,0.061728395061728336,51.79012345679007,0)" xlink:href="#x"/><use transform="matrix(0.061728395061728336,0,0,0.061728395061728336,64.13580246913574,0)" xlink:href="#L"/><use transform="matrix(0.061728395061728336,0,0,0.061728395061728336,70.30864197530857,0)" xlink:href="#N"/><use transform="matrix(0.061728395061728336,0,0,0.061728395061728336,82.65432098765424,0)" xlink:href="#S"/><use transform="matrix(0.061728395061728336,0,0,0.061728395061728336,89.99999999999991,0)" xlink:href="#K"/><use transform="matrix(0.061728395061728336,0,0,0.061728395061728336,102.34567901234558,0)" xlink:href="#w"/><use transform="matrix(0.061728395061728336,0,0,0.061728395061728336,107.22222222222213,0)" xlink:href="#s"/><use transform="matrix(0.061728395061728336,0,0,0.061728395061728336,112.09876543209867,0)" xlink:href="#af"/><use transform="matrix(0.061728395061728336,0,0,0.061728395061728336,123.20987654320977,0)" xlink:href="#N"/><use transform="matrix(0.061728395061728336,0,0,0.061728395061728336,135.55555555555543,0)" xlink:href="#P"/></g><path fill="#3a414a" d="M205 0l-28-72H64L36 0H1l101-248h38L239 0h-34zm-38-99l-47-123c-12 45-31 82-46 123h93" id="ag"/><g id="o"><use transform="matrix(0.061728395061728336,0,0,0.061728395061728336,0,0)" xlink:href="#ag"/><use transform="matrix(0.061728395061728336,0,0,0.061728395061728336,14.8148148148148,0)" xlink:href="#aa"/><use transform="matrix(0.061728395061728336,0,0,0.061728395061728336,27.160493827160465,0)" xlink:href="#L"/><use transform="matrix(0.061728395061728336,0,0,0.061728395061728336,33.3333333333333,0)" xlink:href="#v"/></g><g id="p"><use transform="matrix(0.06172839506172839,0,0,0.06172839506172839,0,0)" xlink:href="#Z"/><use transform="matrix(0.06172839506172839,0,0,0.06172839506172839,12.716049382716047,0)" xlink:href="#s"/><use transform="matrix(0.06172839506172839,0,0,0.06172839506172839,17.592592592592588,0)" xlink:href="#X"/><use transform="matrix(0.06172839506172839,0,0,0.06172839506172839,36.04938271604938,0)" xlink:href="#N"/><use transform="matrix(0.06172839506172839,0,0,0.06172839506172839,48.395061728395056,0)" xlink:href="#w"/><use transform="matrix(0.06172839506172839,0,0,0.06172839506172839,53.2716049382716,0)" xlink:href="#s"/><use transform="matrix(0.06172839506172839,0,0,0.06172839506172839,58.148148148148145,0)" xlink:href="#x"/><use transform="matrix(0.06172839506172839,0,0,0.06172839506172839,70.49382716049382,0)" xlink:href="#N"/></g><g id="q"><use transform="matrix(0.06172839506172839,0,0,0.06172839506172839,0,0)" xlink:href="#V"/><use transform="matrix(0.06172839506172839,0,0,0.06172839506172839,14.814814814814813,0)" xlink:href="#N"/><use transform="matrix(0.06172839506172839,0,0,0.06172839506172839,27.160493827160494,0)" xlink:href="#S"/><use transform="matrix(0.06172839506172839,0,0,0.06172839506172839,34.50617283950617,0)" xlink:href="#ae"/><use transform="matrix(0.06172839506172839,0,0,0.06172839506172839,45.61728395061728,0)" xlink:href="#s"/><use transform="matrix(0.06172839506172839,0,0,0.06172839506172839,50.49382716049382,0)" xlink:href="#R"/><use transform="matrix(0.06172839506172839,0,0,0.06172839506172839,61.60493827160494,0)" xlink:href="#N"/></g></defs></g></svg>